<svg xmlns="http://www.w3.org/2000/svg" width="1440" height="900"><path d="M759,441L697,491L799,553Z" fill="#f05b9e" stroke="#f05b9e" stroke-width="1.51"/><path d="M799,553L856,552L759,441Z" fill="#ea4f9c" stroke="#ea4f9c" stroke-width="1.51"/><path d="M697,491L706,603L799,553Z" fill="#eb519c" stroke="#eb519c" stroke-width="1.51"/><path d="M799,553L812,654L856,552Z" fill="#de3e97" stroke="#de3e97" stroke-width="1.51"/><path d="M759,441L742,357L697,491Z" fill="#f76ca2" stroke="#f76ca2" stroke-width="1.51"/><path d="M884,358L742,357L759,441Z" fill="#f370a5" stroke="#f370a5" stroke-width="1.51"/><path d="M856,552L908,496L759,441Z" fill="#e94e9c" stroke="#e94e9c" stroke-width="1.51"/><path d="M706,603L812,654L799,553Z" fill="#de4296" stroke="#de4296" stroke-width="1.51"/><path d="M856,552L1047,613L908,496Z" fill="#d93395" stroke="#d93395" stroke-width="1.51"/><path d="M908,496L884,358L759,441Z" fill="#ee5c9f" stroke="#ee5c9f" stroke-width="1.51"/><path d="M564,554L634,659L706,603Z" fill="#e25a9c" stroke="#e25a9c" stroke-width="1.51"/><path d="M706,603L736,758L812,654Z" fill="#d13c8f" stroke="#d13c8f" stroke-width="1.51"/><path d="M564,554L706,603L697,491Z" fill="#ed5fa0" stroke="#ed5fa0" stroke-width="1.51"/><path d="M566,445L564,554L697,491Z" fill="#f371a5" stroke="#f371a5" stroke-width="1.51"/><path d="M742,357L566,445L697,491Z" fill="#f876a5" stroke="#f876a5" stroke-width="1.51"/><path d="M812,654L885,709L856,552Z" fill="#d03090" stroke="#d03090" stroke-width="1.51"/><path d="M736,758L885,709L812,654Z" fill="#c4308c" stroke="#c4308c" stroke-width="1.51"/><path d="M742,357L621,295L566,445Z" fill="#fa8aad" stroke="#fa8aad" stroke-width="1.51"/><path d="M664,183L621,295L742,357Z" fill="#fa96b0" stroke="#fa96b0" stroke-width="1.51"/><path d="M634,659L736,758L706,603Z" fill="#d34691" stroke="#d34691" stroke-width="1.51"/><path d="M621,295L570,326L566,445Z" fill="#fa95b1" stroke="#fa95b1" stroke-width="1.51"/><path d="M634,659L679,827L736,758Z" fill="#c1438f" stroke="#c1438f" stroke-width="1.51"/><path d="M564,554L558,696L634,659Z" fill="#dd5e9c" stroke="#dd5e9c" stroke-width="1.51"/><path d="M401,600L558,696L564,554Z" fill="#e26ca1" stroke="#e26ca1" stroke-width="1.51"/><path d="M908,496L1035,434L884,358Z" fill="#e5539b" stroke="#e5539b" stroke-width="1.51"/><path d="M1047,613L1035,434L908,496Z" fill="#d63893" stroke="#d63893" stroke-width="1.51"/><path d="M1001,703L1047,613L856,552Z" fill="#c7228b" stroke="#c7228b" stroke-width="1.51"/><path d="M884,358L772,184L742,357Z" fill="#f583ab" stroke="#f583ab" stroke-width="1.51"/><path d="M1059,340L909,234L884,358Z" fill="#e770a4" stroke="#e770a4" stroke-width="1.51"/><path d="M885,709L1001,703L856,552Z" fill="#c7228b" stroke="#c7228b" stroke-width="1.51"/><path d="M926,772L1001,703L885,709Z" fill="#b41986" stroke="#b41986" stroke-width="1.51"/><path d="M873,878L926,772L885,709Z" fill="#ac1d87" stroke="#ac1d87" stroke-width="1.51"/><path d="M909,234L772,184L884,358Z" fill="#f284ac" stroke="#f284ac" stroke-width="1.51"/><path d="M621,295L537,251L570,326Z" fill="#fba2b5" stroke="#fba2b5" stroke-width="1.51"/><path d="M558,696L679,827L634,659Z" fill="#c74f94" stroke="#c74f94" stroke-width="1.51"/><path d="M736,758L873,878L885,709Z" fill="#b12a89" stroke="#b12a89" stroke-width="1.51"/><path d="M772,184L664,183L742,357Z" fill="#fa96af" stroke="#fa96af" stroke-width="1.51"/><path d="M409,324L419,472L566,445Z" fill="#fa96b0" stroke="#fa96b0" stroke-width="1.51"/><path d="M566,445L419,472L564,554Z" fill="#f580a9" stroke="#f580a9" stroke-width="1.51"/><path d="M664,183L537,251L621,295Z" fill="#fba6b6" stroke="#fba6b6" stroke-width="1.51"/><path d="M1047,613L1094,562L1035,434Z" fill="#cb2b8d" stroke="#cb2b8d" stroke-width="1.51"/><path d="M1121,716L1094,562L1047,613Z" fill="#b61083" stroke="#b61083" stroke-width="1.51"/><path d="M409,324L566,445L570,326Z" fill="#fa9bb3" stroke="#fa9bb3" stroke-width="1.51"/><path d="M1035,434L1059,340L884,358Z" fill="#e05d9c" stroke="#e05d9c" stroke-width="1.51"/><path d="M1092,331L1059,340L1035,434Z" fill="#d75a97" stroke="#d75a97" stroke-width="1.51"/><path d="M419,472L401,600L564,554Z" fill="#f07daa" stroke="#f07daa" stroke-width="1.51"/><path d="M558,696L540,821L679,827Z" fill="#bb5193" stroke="#bb5193" stroke-width="1.51"/><path d="M1059,340L969,171L909,234Z" fill="#e47aa5" stroke="#e47aa5" stroke-width="1.51"/><path d="M1135,483L1092,331L1035,434Z" fill="#d24b93" stroke="#d24b93" stroke-width="1.51"/><path d="M1094,562L1135,483L1035,434Z" fill="#cc358d" stroke="#cc358d" stroke-width="1.51"/><path d="M420,816L540,821L558,696Z" fill="#bd5e98" stroke="#bd5e98" stroke-width="1.51"/><path d="M926,772L1023,803L1001,703Z" fill="#a71282" stroke="#a71282" stroke-width="1.51"/><path d="M679,827L873,878L736,758Z" fill="#ae3289" stroke="#ae3289" stroke-width="1.51"/><path d="M784,952L873,878L679,827Z" fill="#9f2d85" stroke="#9f2d85" stroke-width="1.51"/><path d="M537,251L409,324L570,326Z" fill="#fba9b8" stroke="#fba9b8" stroke-width="1.51"/><path d="M419,472L333,540L401,600Z" fill="#f286ac" stroke="#f286ac" stroke-width="1.51"/><path d="M849,60L770,91L772,184Z" fill="#f89fbd" stroke="#f89fbd" stroke-width="1.51"/><path d="M772,184L700,90L664,183Z" fill="#fca3ba" stroke="#fca3ba" stroke-width="1.51"/><path d="M1118,167L969,171L1059,340Z" fill="#db78a1" stroke="#db78a1" stroke-width="1.51"/><path d="M1001,703L1121,716L1047,613Z" fill="#b0067f" stroke="#b0067f" stroke-width="1.51"/><path d="M1268,519L1262,435L1135,483Z" fill="#ba358c" stroke="#ba358c" stroke-width="1.51"/><path d="M873,878L1023,803L926,772Z" fill="#9f1583" stroke="#9f1583" stroke-width="1.51"/><path d="M849,60L772,184L909,234Z" fill="#f494b5" stroke="#f494b5" stroke-width="1.51"/><path d="M664,183L548,118L537,251Z" fill="#fcb2bd" stroke="#fcb2bd" stroke-width="1.51"/><path d="M537,251L418,198L409,324Z" fill="#fcb6bc" stroke="#fcb6bc" stroke-width="1.51"/><path d="M770,91L700,90L772,184Z" fill="#fba3bd" stroke="#fba3bd" stroke-width="1.51"/><path d="M1023,803L1121,716L1001,703Z" fill="#a3077e" stroke="#a3077e" stroke-width="1.51"/><path d="M401,600L384,717L558,696Z" fill="#d76c9d" stroke="#d76c9d" stroke-width="1.51"/><path d="M290,493L333,540L419,472Z" fill="#f691af" stroke="#f691af" stroke-width="1.51"/><path d="M284,676L384,717L401,600Z" fill="#d977a0" stroke="#d977a0" stroke-width="1.51"/><path d="M700,90L548,118L664,183Z" fill="#fdb1c1" stroke="#fdb1c1" stroke-width="1.51"/><path d="M969,171L849,60L909,234Z" fill="#ef8db4" stroke="#ef8db4" stroke-width="1.51"/><path d="M1118,167L1000,128L969,171Z" fill="#df83ab" stroke="#df83ab" stroke-width="1.51"/><path d="M622,941L784,952L679,827Z" fill="#a03987" stroke="#a03987" stroke-width="1.51"/><path d="M1042,959L1097,819L1023,803Z" fill="#880379" stroke="#880379" stroke-width="1.51"/><path d="M1000,128L849,60L969,171Z" fill="#ec8fb6" stroke="#ec8fb6" stroke-width="1.51"/><path d="M770,91L807,8L700,90Z" fill="#fca8c2" stroke="#fca8c2" stroke-width="1.51"/><path d="M466,24L471,83L548,118Z" fill="#fec9ce" stroke="#fec9ce" stroke-width="1.51"/><path d="M540,821L622,941L679,827Z" fill="#a9498e" stroke="#a9498e" stroke-width="1.51"/><path d="M542,944L622,941L540,821Z" fill="#a14d8e" stroke="#a14d8e" stroke-width="1.51"/><path d="M330,304L290,493L419,472Z" fill="#fba0b4" stroke="#fba0b4" stroke-width="1.51"/><path d="M548,118L418,198L537,251Z" fill="#fcbbc0" stroke="#fcbbc0" stroke-width="1.51"/><path d="M384,717L420,816L558,696Z" fill="#c6669a" stroke="#c6669a" stroke-width="1.51"/><path d="M1023,803L1097,819L1121,716Z" fill="#96017b" stroke="#96017b" stroke-width="1.51"/><path d="M1042,959L1023,803L873,878Z" fill="#8d0e7c" stroke="#8d0e7c" stroke-width="1.51"/><path d="M330,304L419,472L409,324Z" fill="#fba9b7" stroke="#fba9b7" stroke-width="1.51"/><path d="M333,540L284,676L401,600Z" fill="#e680a8" stroke="#e680a8" stroke-width="1.51"/><path d="M384,717L270,841L420,816Z" fill="#bb6d9c" stroke="#bb6d9c" stroke-width="1.51"/><path d="M418,198L330,304L409,324Z" fill="#fcbabd" stroke="#fcbabd" stroke-width="1.51"/><path d="M655,1024L767,1032L784,952Z" fill="#9f3285" stroke="#9f3285" stroke-width="1.51"/><path d="M420,816L542,944L540,821Z" fill="#ab5893" stroke="#ab5893" stroke-width="1.51"/><path d="M1092,331L1118,167L1059,340Z" fill="#d46b9c" stroke="#d46b9c" stroke-width="1.51"/><path d="M907,-49L807,8L849,60Z" fill="#f7a4c5" stroke="#f7a4c5" stroke-width="1.51"/><path d="M1224,319L1118,167L1092,331Z" fill="#cc6a9c" stroke="#cc6a9c" stroke-width="1.51"/><path d="M907,-49L849,60L967,-46Z" fill="#f39ec4" stroke="#f39ec4" stroke-width="1.51"/><path d="M849,60L807,8L770,91Z" fill="#f8a4c2" stroke="#f8a4c2" stroke-width="1.51"/><path d="M1135,483L1224,319L1092,331Z" fill="#c95395" stroke="#c95395" stroke-width="1.51"/><path d="M1262,435L1224,319L1135,483Z" fill="#c04891" stroke="#c04891" stroke-width="1.51"/><path d="M1135,483L1094,562L1268,519Z" fill="#be2b8b" stroke="#be2b8b" stroke-width="1.51"/><path d="M182,526L284,676L333,540Z" fill="#ec8ab1" stroke="#ec8ab1" stroke-width="1.51"/><path d="M434,1025L568,1047L542,944Z" fill="#a15491" stroke="#a15491" stroke-width="1.51"/><path d="M1268,519L1094,562L1249,685Z" fill="#ae1885" stroke="#ae1885" stroke-width="1.51"/><path d="M1249,685L1094,562L1121,716Z" fill="#a8077f" stroke="#a8077f" stroke-width="1.51"/><path d="M548,118L471,83L418,198Z" fill="#fdc4c8" stroke="#fdc4c8" stroke-width="1.51"/><path d="M418,198L291,256L330,304Z" fill="#fcc2bf" stroke="#fcc2bf" stroke-width="1.51"/><path d="M466,24L548,118L499,-51Z" fill="#ffccd2" stroke="#ffccd2" stroke-width="1.51"/><path d="M1203,793L1249,685L1121,716Z" fill="#91017b" stroke="#91017b" stroke-width="1.51"/><path d="M932,1032L1042,959L873,878Z" fill="#8d127d" stroke="#8d127d" stroke-width="1.51"/><path d="M655,1024L784,952L622,941Z" fill="#a03a88" stroke="#a03a88" stroke-width="1.51"/><path d="M299,88L291,256L418,198Z" fill="#fdcdc7" stroke="#fdcdc7" stroke-width="1.51"/><path d="M330,304L228,333L290,493Z" fill="#fcb0bd" stroke="#fcb0bd" stroke-width="1.51"/><path d="M290,493L182,526L333,540Z" fill="#f594b5" stroke="#f594b5" stroke-width="1.51"/><path d="M1097,819L1203,793L1121,716Z" fill="#8e017a" stroke="#8e017a" stroke-width="1.51"/><path d="M1218,879L1203,793L1097,819Z" fill="#7e0076" stroke="#7e0076" stroke-width="1.51"/><path d="M568,1047L655,1024L622,941Z" fill="#a1468c" stroke="#a1468c" stroke-width="1.51"/><path d="M932,1032L873,878L784,952Z" fill="#961e82" stroke="#961e82" stroke-width="1.51"/><path d="M1118,167L1116,103L1000,128Z" fill="#d981aa" stroke="#d981aa" stroke-width="1.51"/><path d="M1231,110L1116,103L1118,167Z" fill="#cd7eaa" stroke="#cd7eaa" stroke-width="1.51"/><path d="M767,1032L932,1032L784,952Z" fill="#982483" stroke="#982483" stroke-width="1.51"/><path d="M291,256L228,333L330,304Z" fill="#fcbfc2" stroke="#fcbfc2" stroke-width="1.51"/><path d="M471,83L299,88L418,198Z" fill="#fdcecc" stroke="#fdcecc" stroke-width="1.51"/><path d="M63,353L152,402L228,333Z" fill="#fdbcc9" stroke="#fdbcc9" stroke-width="1.51"/><path d="M701,-62L548,118L700,90Z" fill="#feb8c8" stroke="#feb8c8" stroke-width="1.51"/><path d="M1122,1019L1136,926L1042,959Z" fill="#7a0074" stroke="#7a0074" stroke-width="1.51"/><path d="M1042,959L1136,926L1097,819Z" fill="#7b0074" stroke="#7b0074" stroke-width="1.51"/><path d="M807,8L701,-62L700,90Z" fill="#ffb0c8" stroke="#ffb0c8" stroke-width="1.51"/><path d="M702,-113L701,-62L825,-161Z" fill="#feb0c9" stroke="#feb0c9" stroke-width="1.51"/><path d="M967,-46L849,60L1000,128Z" fill="#ee97bd" stroke="#ee97bd" stroke-width="1.51"/><path d="M542,944L568,1047L622,941Z" fill="#a14c8e" stroke="#a14c8e" stroke-width="1.51"/><path d="M655,1024L568,1047L767,1032Z" fill="#a03f89" stroke="#a03f89" stroke-width="1.51"/><path d="M767,1032L982,1065L932,1032Z" fill="#941881" stroke="#941881" stroke-width="1.51"/><path d="M401,959L542,944L420,816Z" fill="#a25b92" stroke="#a25b92" stroke-width="1.51"/><path d="M152,402L182,526L290,493Z" fill="#fba1bb" stroke="#fba1bb" stroke-width="1.51"/><path d="M270,841L384,717L284,676Z" fill="#c774a1" stroke="#c774a1" stroke-width="1.51"/><path d="M324,922L401,959L420,816Z" fill="#a36395" stroke="#a36395" stroke-width="1.51"/><path d="M1224,319L1282,213L1118,167Z" fill="#c46e9c" stroke="#c46e9c" stroke-width="1.51"/><path d="M1262,435L1324,347L1224,319Z" fill="#b85193" stroke="#b85193" stroke-width="1.51"/><path d="M1403,485L1324,347L1262,435Z" fill="#af408c" stroke="#af408c" stroke-width="1.51"/><path d="M1403,485L1262,435L1268,519Z" fill="#ad3289" stroke="#ad3289" stroke-width="1.51"/><path d="M907,-49L897,-95L807,8Z" fill="#f6a2c5" stroke="#f6a2c5" stroke-width="1.51"/><path d="M1116,103L967,-46L1000,128Z" fill="#e18db5" stroke="#e18db5" stroke-width="1.51"/><path d="M1249,685L1333,637L1268,519Z" fill="#9d1181" stroke="#9d1181" stroke-width="1.51"/><path d="M1379,836L1333,637L1249,685Z" fill="#820077" stroke="#820077" stroke-width="1.51"/><path d="M1379,836L1249,685L1203,793Z" fill="#7c0177" stroke="#7c0177" stroke-width="1.51"/><path d="M1136,926L1218,879L1097,819Z" fill="#780074" stroke="#780074" stroke-width="1.51"/><path d="M159,802L270,841L284,676Z" fill="#c177a6" stroke="#c177a6" stroke-width="1.51"/><path d="M1116,103L1145,-47L967,-46Z" fill="#dc8fb7" stroke="#dc8fb7" stroke-width="1.51"/><path d="M1324,347L1282,213L1224,319Z" fill="#b96198" stroke="#b96198" stroke-width="1.51"/><path d="M182,526L182,677L284,676Z" fill="#e388b0" stroke="#e388b0" stroke-width="1.51"/><path d="M270,841L324,922L420,816Z" fill="#ac699a" stroke="#ac699a" stroke-width="1.51"/><path d="M401,959L434,1025L542,944Z" fill="#a25a92" stroke="#a25a92" stroke-width="1.51"/><path d="M932,1032L982,1065L1042,959Z" fill="#890c7b" stroke="#890c7b" stroke-width="1.51"/><path d="M1136,926L1264,1011L1218,879Z" fill="#6a0072" stroke="#6a0072" stroke-width="1.51"/><path d="M568,1047L982,1065L767,1032Z" fill="#9c2d84" stroke="#9c2d84" stroke-width="1.51"/><path d="M1333,637L1369,542L1268,519Z" fill="#a21a84" stroke="#a21a84" stroke-width="1.51"/><path d="M466,24L299,88L471,83Z" fill="#fed2d1" stroke="#fed2d1" stroke-width="1.51"/><path d="M701,-62L499,-51L548,118Z" fill="#ffc6d1" stroke="#ffc6d1" stroke-width="1.51"/><path d="M298,1032L434,1025L401,959Z" fill="#a36395" stroke="#a36395" stroke-width="1.51"/><path d="M967,-46L897,-95L907,-49Z" fill="#f19dc3" stroke="#f19dc3" stroke-width="1.51"/><path d="M701,-62L702,-113L499,-51Z" fill="#ffbfce" stroke="#ffbfce" stroke-width="1.51"/><path d="M1282,213L1231,110L1118,167Z" fill="#c477a4" stroke="#c477a4" stroke-width="1.51"/><path d="M978,-170L825,-161L897,-95Z" fill="#f49fc4" stroke="#f49fc4" stroke-width="1.51"/><path d="M228,333L152,402L290,493Z" fill="#fdadbf" stroke="#fdadbf" stroke-width="1.51"/><path d="M182,526L81,581L182,677Z" fill="#ea91b8" stroke="#ea91b8" stroke-width="1.51"/><path d="M151,218L228,333L291,256Z" fill="#fdc8c9" stroke="#fdc8c9" stroke-width="1.51"/><path d="M825,-161L701,-62L807,8Z" fill="#fcadc8" stroke="#fcadc8" stroke-width="1.51"/><path d="M339,-23L299,88L466,24Z" fill="#fedad6" stroke="#fedad6" stroke-width="1.51"/><path d="M982,1065L1122,1019L1042,959Z" fill="#800376" stroke="#800376" stroke-width="1.51"/><path d="M1324,347L1405,249L1282,213Z" fill="#b16297" stroke="#b16297" stroke-width="1.51"/><path d="M1369,542L1403,485L1268,519Z" fill="#a52886" stroke="#a52886" stroke-width="1.51"/><path d="M1448,609L1403,485L1369,542Z" fill="#991d83" stroke="#991d83" stroke-width="1.51"/><path d="M441,-161L339,-23L499,-51Z" fill="#ffd7d7" stroke="#ffd7d7" stroke-width="1.51"/><path d="M897,-95L825,-161L807,8Z" fill="#f7a5c6" stroke="#f7a5c6" stroke-width="1.51"/><path d="M978,-170L897,-95L967,-46Z" fill="#ed9bc1" stroke="#ed9bc1" stroke-width="1.51"/><path d="M324,922L298,1032L401,959Z" fill="#a36697" stroke="#a36697" stroke-width="1.51"/><path d="M149,902L298,1032L324,922Z" fill="#a36c9e" stroke="#a36c9e" stroke-width="1.51"/><path d="M182,677L159,802L284,676Z" fill="#ce7ea9" stroke="#ce7ea9" stroke-width="1.51"/><path d="M64,788L159,802L182,677Z" fill="#c680ad" stroke="#c680ad" stroke-width="1.51"/><path d="M201,120L151,218L291,256Z" fill="#fdd3cf" stroke="#fdd3cf" stroke-width="1.51"/><path d="M1231,110L1145,-47L1116,103Z" fill="#cd86b1" stroke="#cd86b1" stroke-width="1.51"/><path d="M299,88L201,120L291,256Z" fill="#fdd5d0" stroke="#fdd5d0" stroke-width="1.51"/><path d="M499,-51L339,-23L466,24Z" fill="#fed6d7" stroke="#fed6d7" stroke-width="1.51"/><path d="M504,-154L499,-51L702,-113Z" fill="#ffc8d2" stroke="#ffc8d2" stroke-width="1.51"/><path d="M227,-54L201,120L299,88Z" fill="#fee1de" stroke="#fee1de" stroke-width="1.51"/><path d="M74,424L81,581L182,526Z" fill="#f8a1c0" stroke="#f8a1c0" stroke-width="1.51"/><path d="M74,424L182,526L152,402Z" fill="#feaac1" stroke="#feaac1" stroke-width="1.51"/><path d="M63,353L74,424L152,402Z" fill="#feb9c9" stroke="#feb9c9" stroke-width="1.51"/><path d="M1497,405L1405,249L1324,347Z" fill="#a65391" stroke="#a65391" stroke-width="1.51"/><path d="M1282,213L1338,98L1231,110Z" fill="#ba76a5" stroke="#ba76a5" stroke-width="1.51"/><path d="M1231,110L1247,-32L1145,-47Z" fill="#c788b4" stroke="#c788b4" stroke-width="1.51"/><path d="M1145,-47L1115,-93L967,-46Z" fill="#dc90b8" stroke="#dc90b8" stroke-width="1.51"/><path d="M1257,-96L1115,-93L1145,-47Z" fill="#cd8ab5" stroke="#cd8ab5" stroke-width="1.51"/><path d="M1333,637L1448,609L1369,542Z" fill="#94137f" stroke="#94137f" stroke-width="1.51"/><path d="M1403,485L1497,405L1324,347Z" fill="#a4408a" stroke="#a4408a" stroke-width="1.51"/><path d="M1489,671L1448,609L1333,637Z" fill="#860779" stroke="#860779" stroke-width="1.51"/><path d="M1379,836L1203,793L1218,879Z" fill="#6f0074" stroke="#6f0074" stroke-width="1.51"/><path d="M149,902L324,922L270,841Z" fill="#a66e9e" stroke="#a66e9e" stroke-width="1.51"/><path d="M434,1025L225,1084L568,1047Z" fill="#a36094" stroke="#a36094" stroke-width="1.51"/><path d="M1407,881L1379,836L1218,879Z" fill="#600070" stroke="#600070" stroke-width="1.51"/><path d="M825,-161L504,-154L702,-113Z" fill="#ffb9cc" stroke="#ffb9cc" stroke-width="1.51"/><path d="M1438,176L1338,98L1282,213Z" fill="#b070a0" stroke="#b070a0" stroke-width="1.51"/><path d="M1115,-93L978,-170L967,-46Z" fill="#e394bb" stroke="#e394bb" stroke-width="1.51"/><path d="M825,-161L441,-161L504,-154Z" fill="#ffc5d0" stroke="#ffc5d0" stroke-width="1.51"/><path d="M-43,560L46,650L81,581Z" fill="#ec98bf" stroke="#ec98bf" stroke-width="1.51"/><path d="M151,218L63,353L228,333Z" fill="#fdc8cd" stroke="#fdc8cd" stroke-width="1.51"/><path d="M95,217L63,353L151,218Z" fill="#fed1d1" stroke="#fed1d1" stroke-width="1.51"/><path d="M982,1065L1264,1011L1122,1019Z" fill="#760073" stroke="#760073" stroke-width="1.51"/><path d="M1122,1019L1264,1011L1136,926Z" fill="#6f0072" stroke="#6f0072" stroke-width="1.51"/><path d="M201,120L95,217L151,218Z" fill="#fddad5" stroke="#fddad5" stroke-width="1.51"/><path d="M88,53L95,217L201,120Z" fill="#fee1dd" stroke="#fee1dd" stroke-width="1.51"/><path d="M1338,98L1247,-32L1231,110Z" fill="#bc80ae" stroke="#bc80ae" stroke-width="1.51"/><path d="M1115,-93L1257,-96L978,-170Z" fill="#d68db7" stroke="#d68db7" stroke-width="1.51"/><path d="M81,581L46,650L182,677Z" fill="#e38eb6" stroke="#e38eb6" stroke-width="1.51"/><path d="M159,802L149,902L270,841Z" fill="#af75a5" stroke="#af75a5" stroke-width="1.51"/><path d="M-43,560L81,581L74,424Z" fill="#f8a4c4" stroke="#f8a4c4" stroke-width="1.51"/><path d="M64,788L149,902L159,802Z" fill="#b47baa" stroke="#b47baa" stroke-width="1.51"/><path d="M504,-154L441,-161L499,-51Z" fill="#ffd2d6" stroke="#ffd2d6" stroke-width="1.51"/><path d="M339,-23L227,-54L299,88Z" fill="#ffe3de" stroke="#ffe3de" stroke-width="1.51"/><path d="M978,-170L441,-161L825,-161Z" fill="#feb0c8" stroke="#feb0c8" stroke-width="1.51"/><path d="M1405,249L1438,176L1282,213Z" fill="#ac6999" stroke="#ac6999" stroke-width="1.51"/><path d="M1560,612L1497,405L1403,485Z" fill="#9a2984" stroke="#9a2984" stroke-width="1.51"/><path d="M1448,609L1560,612L1403,485Z" fill="#921680" stroke="#921680" stroke-width="1.51"/><path d="M1379,836L1489,671L1333,637Z" fill="#790075" stroke="#790075" stroke-width="1.51"/><path d="M1495,800L1489,671L1379,836Z" fill="#670071" stroke="#670071" stroke-width="1.51"/><path d="M1264,1011L1407,881L1218,879Z" fill="#5d006f" stroke="#5d006f" stroke-width="1.51"/><path d="M46,650L64,788L182,677Z" fill="#d387b1" stroke="#d387b1" stroke-width="1.51"/><path d="M1376,-67L1257,-96L1247,-32Z" fill="#ba84b3" stroke="#ba84b3" stroke-width="1.51"/><path d="M1574,242L1438,176L1405,249Z" fill="#a36596" stroke="#a36596" stroke-width="1.51"/><path d="M64,788L114,924L149,902Z" fill="#ab79a9" stroke="#ab79a9" stroke-width="1.51"/><path d="M149,902L225,1084L298,1032Z" fill="#a36fa0" stroke="#a36fa0" stroke-width="1.51"/><path d="M282,-168L227,-54L339,-23Z" fill="#ffe4df" stroke="#ffe4df" stroke-width="1.51"/><path d="M1376,-67L1247,-32L1338,98Z" fill="#b683b2" stroke="#b683b2" stroke-width="1.51"/><path d="M1247,-32L1257,-96L1145,-47Z" fill="#c688b5" stroke="#c688b5" stroke-width="1.51"/><path d="M1497,405L1520,331L1405,249Z" fill="#a15390" stroke="#a15390" stroke-width="1.51"/><path d="M1604,340L1520,331L1497,405Z" fill="#a14c8e" stroke="#a14c8e" stroke-width="1.51"/><path d="M92,1009L225,1084L149,902Z" fill="#a473a5" stroke="#a473a5" stroke-width="1.51"/><path d="M298,1032L225,1084L434,1025Z" fill="#a36899" stroke="#a36899" stroke-width="1.51"/><path d="M568,1047L225,1084L982,1065Z" fill="#a14a8d" stroke="#a14a8d" stroke-width="1.51"/><path d="M1407,881L1495,800L1379,836Z" fill="#59006e" stroke="#59006e" stroke-width="1.51"/><path d="M1489,671L1560,612L1448,609Z" fill="#850979" stroke="#850979" stroke-width="1.51"/><path d="M63,353L-36,440L74,424Z" fill="#ffbbcb" stroke="#ffbbcb" stroke-width="1.51"/><path d="M46,650L-58,710L64,788Z" fill="#d18bb5" stroke="#d18bb5" stroke-width="1.51"/><path d="M-54,296L-36,440L63,353Z" fill="#ffc6d1" stroke="#ffc6d1" stroke-width="1.51"/><path d="M-11,248L63,353L95,217Z" fill="#fed3d4" stroke="#fed3d4" stroke-width="1.51"/><path d="M-36,440L-43,560L74,424Z" fill="#fdafc8" stroke="#fdafc8" stroke-width="1.51"/><path d="M-42,921L92,1009L114,924Z" fill="#a57aaa" stroke="#a57aaa" stroke-width="1.51"/><path d="M1569,693L1560,612L1489,671Z" fill="#800276" stroke="#800276" stroke-width="1.51"/><path d="M100,9L88,53L201,120Z" fill="#fee9e5" stroke="#fee9e5" stroke-width="1.51"/><path d="M88,53L-11,248L95,217Z" fill="#fee1dc" stroke="#fee1dc" stroke-width="1.51"/><path d="M982,1065L1395,1023L1264,1011Z" fill="#690072" stroke="#690072" stroke-width="1.51"/><path d="M1264,1011L1395,1023L1407,881Z" fill="#55006d" stroke="#55006d" stroke-width="1.51"/><path d="M1407,881L1495,934L1495,800Z" fill="#50006c" stroke="#50006c" stroke-width="1.51"/><path d="M441,-161L282,-168L339,-23Z" fill="#fededa" stroke="#fededa" stroke-width="1.51"/><path d="M227,-54L100,9L201,120Z" fill="#fee9e5" stroke="#fee9e5" stroke-width="1.51"/><path d="M978,-170L282,-168L441,-161Z" fill="#ffc8d2" stroke="#ffc8d2" stroke-width="1.51"/><path d="M-156,307L-54,296L-158,258Z" fill="#fed4d6" stroke="#fed4d6" stroke-width="1.51"/><path d="M49,-101L100,9L227,-54Z" fill="#ffefeb" stroke="#ffefeb" stroke-width="1.51"/><path d="M1590,816L1569,693L1495,800Z" fill="#660071" stroke="#660071" stroke-width="1.51"/><path d="M1495,800L1569,693L1489,671Z" fill="#720073" stroke="#720073" stroke-width="1.51"/><path d="M114,924L92,1009L149,902Z" fill="#a476a6" stroke="#a476a6" stroke-width="1.51"/><path d="M-42,921L114,924L64,788Z" fill="#aa7cac" stroke="#aa7cac" stroke-width="1.51"/><path d="M-11,248L-54,296L63,353Z" fill="#ffd2d6" stroke="#ffd2d6" stroke-width="1.51"/><path d="M-195,549L-178,641L-43,560Z" fill="#ef9cc2" stroke="#ef9cc2" stroke-width="1.51"/><path d="M-54,296L-11,248L-158,258Z" fill="#ffd7d7" stroke="#ffd7d7" stroke-width="1.51"/><path d="M1456,13L1376,-67L1338,98Z" fill="#ac7eae" stroke="#ac7eae" stroke-width="1.51"/><path d="M1257,-96L1466,-145L978,-170Z" fill="#c388b4" stroke="#c388b4" stroke-width="1.51"/><path d="M1456,13L1338,98L1438,176Z" fill="#a875a6" stroke="#a875a6" stroke-width="1.51"/><path d="M-43,560L-58,710L46,650Z" fill="#e394bb" stroke="#e394bb" stroke-width="1.51"/><path d="M-178,641L-58,710L-43,560Z" fill="#e495bb" stroke="#e495bb" stroke-width="1.51"/><path d="M1457,994L1495,934L1407,881Z" fill="#49006a" stroke="#49006a" stroke-width="1.51"/><path d="M1525,118L1456,13L1438,176Z" fill="#a373a4" stroke="#a373a4" stroke-width="1.51"/><path d="M1395,1023L1457,994L1407,881Z" fill="#4c006b" stroke="#4c006b" stroke-width="1.51"/><path d="M1520,331L1574,242L1405,249Z" fill="#a25d93" stroke="#a25d93" stroke-width="1.51"/><path d="M1604,340L1574,242L1520,331Z" fill="#a25791" stroke="#a25791" stroke-width="1.51"/><path d="M1604,340L1497,405L1639,426Z" fill="#a1448b" stroke="#a1448b" stroke-width="1.51"/><path d="M1574,242L1525,118L1438,176Z" fill="#a36a9b" stroke="#a36a9b" stroke-width="1.51"/><path d="M1639,426L1497,405L1560,612Z" fill="#9c2d84" stroke="#9c2d84" stroke-width="1.51"/><path d="M282,-168L199,-154L227,-54Z" fill="#fee7e3" stroke="#fee7e3" stroke-width="1.51"/><path d="M-58,710L-57,842L64,788Z" fill="#c187b4" stroke="#c187b4" stroke-width="1.51"/><path d="M1627,-2L1567,50L1574,242Z" fill="#a473a5" stroke="#a473a5" stroke-width="1.51"/><path d="M1569,693L1639,426L1560,612Z" fill="#90147f" stroke="#90147f" stroke-width="1.51"/><path d="M1466,-145L1407,-101L1456,13Z" fill="#a57dad" stroke="#a57dad" stroke-width="1.51"/><path d="M1456,13L1407,-101L1376,-67Z" fill="#a97eae" stroke="#a97eae" stroke-width="1.51"/><path d="M1376,-67L1407,-101L1257,-96Z" fill="#b382b1" stroke="#b382b1" stroke-width="1.51"/><path d="M1569,693L1623,877L1639,426Z" fill="#7e0075" stroke="#7e0075" stroke-width="1.51"/><path d="M1495,934L1590,816L1495,800Z" fill="#54006d" stroke="#54006d" stroke-width="1.51"/><path d="M1623,877L1590,816L1495,934Z" fill="#4f006b" stroke="#4f006b" stroke-width="1.51"/><path d="M-57,842L-42,921L64,788Z" fill="#b081b1" stroke="#b081b1" stroke-width="1.51"/><path d="M1525,118L1567,50L1456,13Z" fill="#a477a8" stroke="#a477a8" stroke-width="1.51"/><path d="M1574,242L1567,50L1525,118Z" fill="#a36fa0" stroke="#a36fa0" stroke-width="1.51"/><path d="M1627,-2L1574,242L1604,340Z" fill="#a36999" stroke="#a36999" stroke-width="1.51"/><path d="M199,-154L49,-101L227,-54Z" fill="#feede9" stroke="#feede9" stroke-width="1.51"/><path d="M100,9L-6,-47L88,53Z" fill="#fff2ef" stroke="#fff2ef" stroke-width="1.51"/><path d="M-54,296L-156,307L-36,440Z" fill="#ffc9d3" stroke="#ffc9d3" stroke-width="1.51"/><path d="M-195,809L-149,905L-57,842Z" fill="#b081b1" stroke="#b081b1" stroke-width="1.51"/><path d="M-88,59L-11,248L88,53Z" fill="#feeae7" stroke="#feeae7" stroke-width="1.51"/><path d="M1457,994L1559,995L1495,934Z" fill="#49006a" stroke="#49006a" stroke-width="1.51"/><path d="M1395,1023L1559,995L1457,994Z" fill="#49006a" stroke="#49006a" stroke-width="1.51"/><path d="M1559,995L1623,877L1495,934Z" fill="#49006a" stroke="#49006a" stroke-width="1.51"/><path d="M1590,816L1623,877L1569,693Z" fill="#600070" stroke="#600070" stroke-width="1.51"/><path d="M49,-101L-6,-47L100,9Z" fill="#fff4f0" stroke="#fff4f0" stroke-width="1.51"/><path d="M-147,997L-44,1000L-42,921Z" fill="#a57dad" stroke="#a57dad" stroke-width="1.51"/><path d="M-42,921L-44,1000L92,1009Z" fill="#a57dad" stroke="#a57dad" stroke-width="1.51"/><path d="M92,1009L-44,1000L225,1084Z" fill="#a477a8" stroke="#a477a8" stroke-width="1.51"/><path d="M-149,905L-42,921L-57,842Z" fill="#a77eae" stroke="#a77eae" stroke-width="1.51"/><path d="M-195,549L-43,560L-205,496Z" fill="#f7a4c5" stroke="#f7a4c5" stroke-width="1.51"/><path d="M-205,496L-43,560L-36,440Z" fill="#fbaac7" stroke="#fbaac7" stroke-width="1.51"/><path d="M-88,59L-158,258L-11,248Z" fill="#ffe2de" stroke="#ffe2de" stroke-width="1.51"/><path d="M-205,496L-36,440L-156,307Z" fill="#ffbbcc" stroke="#ffbbcc" stroke-width="1.51"/><path d="M-6,-47L-88,59L88,53Z" fill="#fff5f1" stroke="#fff5f1" stroke-width="1.51"/><path d="M1627,-2L1466,-145L1456,13Z" fill="#a57dad" stroke="#a57dad" stroke-width="1.51"/><path d="M1407,-101L1466,-145L1257,-96Z" fill="#ae80b0" stroke="#ae80b0" stroke-width="1.51"/><path d="M-205,113L-205,496L-156,307Z" fill="#ffd1d5" stroke="#ffd1d5" stroke-width="1.51"/><path d="M-195,809L-58,710L-178,641Z" fill="#d08cb6" stroke="#d08cb6" stroke-width="1.51"/><path d="M-195,809L-178,641L-195,549Z" fill="#de90b8" stroke="#de90b8" stroke-width="1.51"/><path d="M-195,809L-57,842L-58,710Z" fill="#bf86b4" stroke="#bf86b4" stroke-width="1.51"/><path d="M-205,496L-195,809L-195,549Z" fill="#e897be" stroke="#e897be" stroke-width="1.51"/><path d="M-6,-47L-173,-20L-88,59Z" fill="#fff7f3" stroke="#fff7f3" stroke-width="1.51"/><path d="M49,-101L-3,-146L-6,-47Z" fill="#fff6f2" stroke="#fff6f2" stroke-width="1.51"/><path d="M199,-154L-3,-146L49,-101Z" fill="#fff2ee" stroke="#fff2ee" stroke-width="1.51"/><path d="M282,-168L-3,-146L199,-154Z" fill="#feede9" stroke="#feede9" stroke-width="1.51"/><path d="M1567,50L1627,-2L1456,13Z" fill="#a57bac" stroke="#a57bac" stroke-width="1.51"/><path d="M1639,426L1627,-2L1604,340Z" fill="#a36094" stroke="#a36094" stroke-width="1.51"/><path d="M-149,905L-147,997L-42,921Z" fill="#a57dad" stroke="#a57dad" stroke-width="1.51"/><path d="M-44,1000L-147,997L225,1084Z" fill="#a57dad" stroke="#a57dad" stroke-width="1.51"/><path d="M-195,809L-147,997L-149,905Z" fill="#a57dad" stroke="#a57dad" stroke-width="1.51"/><path d="M-173,-20L-205,113L-88,59Z" fill="#fff2ee" stroke="#fff2ee" stroke-width="1.51"/><path d="M-88,59L-205,113L-158,258Z" fill="#fee8e4" stroke="#fee8e4" stroke-width="1.51"/><path d="M-158,258L-205,113L-156,307Z" fill="#feded9" stroke="#feded9" stroke-width="1.51"/><path d="M-162,-146L-173,-20L-6,-47Z" fill="#fff7f3" stroke="#fff7f3" stroke-width="1.51"/><path d="M1627,-2L1614,-182L1466,-145Z" fill="#a57dad" stroke="#a57dad" stroke-width="1.51"/><path d="M1466,-145L1614,-182L978,-170Z" fill="#b181b0" stroke="#b181b0" stroke-width="1.51"/><path d="M978,-170L1614,-182L282,-168Z" fill="#ec9ac0" stroke="#ec9ac0" stroke-width="1.51"/><path d="M-3,-146L-162,-146L-6,-47Z" fill="#fff7f3" stroke="#fff7f3" stroke-width="1.51"/><path d="M-173,-20L-162,-146L-205,113Z" fill="#fff7f3" stroke="#fff7f3" stroke-width="1.51"/><path d="M282,-168L-162,-146L-3,-146Z" fill="#fff4f0" stroke="#fff4f0" stroke-width="1.51"/></svg>